<svg id="SvgjsSvg1027" width="288" height="288" xmlns="http://www.w3.org/2000/svg" version="1.1" xmlns:xlink="http://www.w3.org/1999/xlink" xmlns:svgjs="http://svgjs.com/svgjs"><defs id="SvgjsDefs1028"></defs><g id="SvgjsG1029"><svg xmlns="http://www.w3.org/2000/svg" enable-background="new 0 0 500 500" viewBox="0 0 500 500" width="288" height="288"><path d="M250,121.4c1.6,0,3.3,0.1,4.9,0.2c7.3,0.7,13.9-3.8,15.8-10.8l5.4-19.9c1.1-4.1,0.4-8.5-1.9-12c-2.3-3.5-6-5.8-10.1-6.4
		c-4.3-0.6-8.7-0.9-13-1c-26.6-0.2-52,10.2-71.4,29.4c-19.7,19.5-31,46.5-31,73.9v45.4h-13.8c-17.6,0-32,14.4-32,32v144.2
		c0,17.6,14.3,32,32,32h230.5c17.6,0,32-14.3,32-32V252.3c0-17.7-14.3-32-32-32h-13.8V173c0-23.2-7.6-45.1-22.1-63.2
		c-2.7-3.4-6.8-5.4-11.2-5.4c0,0-0.1,0-0.1,0c-4.4,0-8.5,1.9-11.3,5.3l-14.2,17.2c-4.1,4.9-4.4,11.8-1,17.2c5.2,8,7.9,17.3,7.9,26.8
		v47.9h-99.1v-47.9C200.5,143.6,222.7,121.4,250,121.4z M380.7,252.3v144.2c0,8.5-6.9,15.5-15.5,15.5H134.7
		c-8.5,0-15.5-6.9-15.5-15.5V252.3c0-8.6,6.9-15.5,15.5-15.5h230.5C373.8,236.8,380.7,243.8,380.7,252.3z M318,122.1
		c11.1,14.8,17,32.4,17,50.9v47.3H316v-49.4c0-12.2-3.4-24.1-9.8-34.5L318,122.1z M184,170.9v49.4h-19v-45.4
		c0-23.1,9.5-45.8,26.1-62.2C207.2,96.8,228.1,88,250,88c0.3,0,0.5,0,0.8,0c2.9,0,5.9,0.2,8.8,0.5l-4.5,16.5
		c-1.7-0.1-3.4-0.2-5.1-0.2C213.6,104.9,184,134.5,184,170.9z" fill="#e2b059" class="color000 svgShape"></path><path d="M230,328.2l-2.5,34.1c-0.3,3.8,1.1,7.6,3.7,10.4c2.6,2.8,6.3,4.4,10.1,4.4h17.4c3.8,0,7.5-1.6,10.1-4.4
		c2.6-2.8,3.9-6.6,3.7-10.4l-2.5-34.1c7.6-6.1,12-15.2,12-25c0-9.1-3.9-17.8-10.7-23.9c-6.8-6.1-15.9-9-25-7.9
		c-14.1,1.6-25.6,12.5-27.9,26.4C216.5,309.5,221,321,230,328.2z M234.7,300.6c1.1-6.6,6.7-12,13.4-12.7c4.5-0.5,8.8,0.9,12.2,3.8
		c3.3,2.9,5.2,7.2,5.2,11.6c0,4.9-2.2,9.4-6.1,12.3c-4.1,3.1-6.3,8-5.9,12.9l2.4,32.1h-11.7l2.4-32.4c0.4-4.9-1.8-9.6-5.8-12.6
		C236,312.1,233.7,306.5,234.7,300.6z" fill="#e2b059" class="color000 svgShape"></path></svg></g></svg>